<svg width="14" height="16" viewBox="0 0 14 16" fill="none" xmlns="http://www.w3.org/2000/svg">
<path d="M10.9981 3.22163H9.97756C9.86816 2.41062 9.47181 1.66564 8.86035 1.12173C8.24889 0.577821 7.4628 0.270984 6.64456 0.256836C5.82632 0.270984 5.04023 0.577821 4.42877 1.12173C3.81731 1.66564 3.42096 2.41062 3.31156 3.22163H2.29156C1.73035 3.22201 1.19222 3.44506 0.795308 3.84182C0.398396 4.23858 0.175143 4.77663 0.174561 5.33784V13.0533C0.175063 13.6145 0.398165 14.1525 0.794906 14.5493C1.19165 14.9462 1.72962 15.1694 2.29076 15.17H10.9978C11.559 15.1696 12.0971 14.9464 12.494 14.5495C12.8909 14.1527 13.1141 13.6146 13.1146 13.0533V5.33784C13.114 4.77671 12.8908 4.23874 12.494 3.84199C12.0972 3.44525 11.5592 3.22214 10.9981 3.22163ZM6.64456 1.35644C7.17197 1.3679 7.67968 1.55901 8.08374 1.89816C8.48781 2.23731 8.76404 2.7042 8.86676 3.22163H4.42236C4.52508 2.7042 4.80131 2.23731 5.20538 1.89816C5.60944 1.55901 6.11715 1.3679 6.64456 1.35644ZM12.0146 13.0533C12.0143 13.3229 11.9071 13.5814 11.7165 13.772C11.5259 13.9627 11.2675 14.07 10.998 14.0704H2.29106C2.0215 14.07 1.76312 13.9627 1.57257 13.772C1.38202 13.5813 1.27485 13.3229 1.27456 13.0533V5.33784C1.27488 5.06831 1.38209 4.80992 1.57267 4.61934C1.76325 4.42876 2.02164 4.32155 2.29116 4.32123H10.9982C11.2676 4.32161 11.526 4.42884 11.7165 4.61941C11.9071 4.80999 12.0142 5.06835 12.0146 5.33784V13.0533Z" fill="white" fill-opacity="0.8"/>
</svg>
