<svg width="15" height="15" viewBox="0 0 15 15" fill="none" xmlns="http://www.w3.org/2000/svg">
<path d="M14.0326 13.3956L10.1626 9.52556C10.8636 8.59656 11.2846 7.44455 11.2846 6.19355C11.2846 3.13355 8.79557 0.643555 5.73457 0.643555C2.67457 0.643555 0.18457 3.13355 0.18457 6.19355C0.18457 9.25455 2.67457 11.7436 5.73457 11.7436C6.98557 11.7436 8.13757 11.3226 9.06657 10.6216L12.9366 14.4916C13.0876 14.6426 13.2866 14.7196 13.4846 14.7196C13.6826 14.7196 13.8806 14.6436 14.0326 14.4916C14.3356 14.1886 14.3356 13.6986 14.0326 13.3956ZM1.28457 6.19355C1.28457 3.73955 3.28157 1.74356 5.73457 1.74356C8.18857 1.74356 10.1846 3.74055 10.1846 6.19355C10.1846 8.64655 8.18857 10.6436 5.73457 10.6436C3.28057 10.6436 1.28457 8.64755 1.28457 6.19355Z" fill="white" fill-opacity="0.8"/>
</svg>
