<svg width="14" height="17" viewBox="0 0 14 17" fill="none" xmlns="http://www.w3.org/2000/svg">
<path d="M12.8376 5.87565C12.3167 6.19455 11.8852 6.6404 11.5836 7.17146C11.2819 7.70252 11.1199 8.30143 11.1128 8.91215C11.1148 9.5995 11.3185 10.2712 11.6985 10.8439C12.0785 11.4167 12.6182 11.8654 13.2507 12.1344C13.0013 12.939 12.6322 13.7015 12.1559 14.3962C11.4743 15.3774 10.7616 16.3585 9.67719 16.3585C8.59279 16.3585 8.31389 15.7285 7.06419 15.7285C5.84549 15.7285 5.41169 16.3792 4.42019 16.3792C3.42869 16.3792 2.73679 15.4703 1.94149 14.3549C0.890955 12.7924 0.313596 10.9599 0.278687 9.07735C0.278687 5.97895 2.29269 4.33685 4.27559 4.33685C5.32909 4.33685 6.20699 5.02875 6.86799 5.02875C7.49799 5.02875 8.47919 4.29545 9.67719 4.29545C10.2932 4.27956 10.9036 4.41537 11.4547 4.69093C12.0058 4.96649 12.4807 5.37334 12.8376 5.87565ZM9.10919 2.98385C9.63729 2.36261 9.93623 1.57897 9.95609 0.763847C9.95698 0.65639 9.94659 0.549135 9.92509 0.443848C9.01794 0.532461 8.17909 0.964822 7.58059 1.65225C7.04739 2.24873 6.73719 3.01144 6.70269 3.81075C6.70309 3.90796 6.71347 4.00486 6.73369 4.09995C6.8052 4.11347 6.87781 4.12039 6.95059 4.12065C7.36866 4.08738 7.7756 3.96945 8.14668 3.77403C8.51776 3.5786 8.84523 3.30976 9.10919 2.98385Z" fill="white" fill-opacity="0.8"/>
</svg>
